REM DIRINDEX 1\6,1\2\7,1\2\8,1\2\9,1\3\10,1\3\11,1\4\12,1\4\13,1\4\14,1\5\15,1\5\16,1\5\17
REM DIRNAME folder01,folder02,folder03,folder04,folder05,folder06,folder07,folder08,folder09,folder10,folder11,folder12,folder13,folder14,folder15,folder16,folder17
TITLE ""
FILE "P2Q_t_1051-1068.mp3" MP3
  TRACK 01 AUDIO
    TITLE "10:cjc040_3758"
    INDEX 01 00:00:00
  TRACK 02 AUDIO
    TITLE "0:"
    INDEX 01 00:01:01
  TRACK 03 AUDIO
    TITLE "11:cjc040_3759"
    INDEX 01 00:01:58
  TRACK 04 AUDIO
    TITLE "0:"
    INDEX 01 00:05:20
  TRACK 05 AUDIO
    TITLE "10:cjc040_3760"
    INDEX 01 00:05:63
  TRACK 06 AUDIO
    TITLE "0:"
    INDEX 01 00:07:15
  TRACK 07 AUDIO
    TITLE "11:cjc040_3761"
    INDEX 01 00:07:62
  TRACK 08 AUDIO
    TITLE "0:"
    INDEX 01 00:09:20
  TRACK 09 AUDIO
    TITLE "10:cjc040_3762"
    INDEX 01 00:09:69
  TRACK 10 AUDIO
    TITLE "0:"
    INDEX 01 00:11:19
  TRACK 11 AUDIO
    TITLE "11:cjc040_3763"
    INDEX 01 00:12:03
  TRACK 12 AUDIO
    TITLE "0:"
    INDEX 01 00:14:19
  TRACK 13 AUDIO
    TITLE "10:cjc040_3764"
    INDEX 01 00:14:70
  TRACK 14 AUDIO
    TITLE "0:"
    INDEX 01 00:16:22
  TRACK 15 AUDIO
    TITLE "11:cjc040_3765"
    INDEX 01 00:16:69
  TRACK 16 AUDIO
    TITLE "0:"
    INDEX 01 00:18:17
  TRACK 17 AUDIO
    TITLE "10:cjc040_3766"
    INDEX 01 00:18:72
  TRACK 18 AUDIO
    TITLE "0:"
    INDEX 01 00:20:12
  TRACK 19 AUDIO
    TITLE "11:cjc040_3767"
    INDEX 01 00:20:65
  TRACK 20 AUDIO
    TITLE "0:"
    INDEX 01 00:23:24
  TRACK 21 AUDIO
    TITLE "10:cjc040_3768"
    INDEX 01 00:24:02
  TRACK 22 AUDIO
    TITLE "0:"
    INDEX 01 00:25:19
  TRACK 23 AUDIO
    TITLE "11:cjc040_3769"
    INDEX 01 00:25:68
  TRACK 24 AUDIO
    TITLE "0:"
    INDEX 01 00:28:17
  TRACK 25 AUDIO
    TITLE "10:cjc040_3770"
    INDEX 01 00:28:74
  TRACK 26 AUDIO
    TITLE "0:"
    INDEX 01 00:30:20
  TRACK 27 AUDIO
    TITLE "11:cjc040_3771"
    INDEX 01 00:31:00
  TRACK 28 AUDIO
    TITLE "0:"
    INDEX 01 00:32:70
  TRACK 29 AUDIO
    TITLE "10:cjc040_3772"
    INDEX 01 00:33:42
  TRACK 30 AUDIO
    TITLE "0:"
    INDEX 01 00:34:67
  TRACK 31 AUDIO
    TITLE "11:cjc040_3773"
    INDEX 01 00:35:39
  TRACK 32 AUDIO
    TITLE "0:"
    INDEX 01 00:38:12
  TRACK 33 AUDIO
    TITLE "10:cjc040_3774"
    INDEX 01 00:38:67
  TRACK 34 AUDIO
    TITLE "0:"
    INDEX 01 00:40:03
  TRACK 35 AUDIO
    TITLE "11:cjc040_3775"
    INDEX 01 00:40:56
  TRACK 36 AUDIO
    TITLE "0:"
    INDEX 01 00:42:70
  TRACK 37 AUDIO
    TITLE "10:cjc040_3776"
    INDEX 01 00:43:46
  TRACK 38 AUDIO
    TITLE "0:"
    INDEX 01 00:44:63
  TRACK 39 AUDIO
    TITLE "11:cjc040_3777"
    INDEX 01 00:45:33
  TRACK 40 AUDIO
    TITLE "0:"
    INDEX 01 00:46:37
  TRACK 41 AUDIO
    TITLE "10:cjc040_3778"
    INDEX 01 00:47:17
  TRACK 42 AUDIO
    TITLE "0:"
    INDEX 01 00:48:34
  TRACK 43 AUDIO
    TITLE "11:cjc040_3779"
    INDEX 01 00:49:12
  TRACK 44 AUDIO
    TITLE "0:"
    INDEX 01 00:51:56
  TRACK 45 AUDIO
    TITLE "10:cjc040_3780"
    INDEX 01 00:52:28
  TRACK 46 AUDIO
    TITLE "0:"
    INDEX 01 00:53:68
  TRACK 47 AUDIO
    TITLE "11:cjc040_3781"
    INDEX 01 00:54:46
  TRACK 48 AUDIO
    TITLE "0:"
    INDEX 01 00:59:38
  TRACK 49 AUDIO
    TITLE "10:cjc040_3782"
    INDEX 01 01:00:17
  TRACK 50 AUDIO
    TITLE "0:"
    INDEX 01 01:01:29
  TRACK 51 AUDIO
    TITLE "11:cjc040_3783"
    INDEX 01 01:02:10
  TRACK 52 AUDIO
    TITLE "0:"
    INDEX 01 01:03:33
  TRACK 53 AUDIO
    TITLE "10:cjc040_3784"
    INDEX 01 01:04:03
  TRACK 54 AUDIO
    TITLE "0:"
    INDEX 01 01:05:11
  TRACK 55 AUDIO
    TITLE "11:cjc040_3785"
    INDEX 01 01:05:73
  TRACK 56 AUDIO
    TITLE "0:"
    INDEX 01 01:07:72
  TRACK 57 AUDIO
    TITLE "10:cjc040_3786"
    INDEX 01 01:08:48
  TRACK 58 AUDIO
    TITLE "0:"
    INDEX 01 01:10:06
  TRACK 59 AUDIO
    TITLE "11:cjc040_3787"
    INDEX 01 01:10:59
  TRACK 60 AUDIO
    TITLE "0:"
    INDEX 01 01:11:70
  TRACK 61 AUDIO
    TITLE "10:cjc040_3788"
    INDEX 01 01:12:48
  TRACK 62 AUDIO
    TITLE "0:"
    INDEX 01 01:13:71
  TRACK 63 AUDIO
    TITLE "11:cjc040_3789"
    INDEX 01 01:14:49
  TRACK 64 AUDIO
    TITLE "0:"
    INDEX 01 01:16:63
  TRACK 65 AUDIO
    TITLE "10:cjc040_3790"
    INDEX 01 01:17:39
  TRACK 66 AUDIO
    TITLE "0:"
    INDEX 01 01:18:66
  TRACK 67 AUDIO
    TITLE "11:cjc040_3791"
    INDEX 01 01:19:42
  TRACK 68 AUDIO
    TITLE "0:"
    INDEX 01 01:20:63
  TRACK 69 AUDIO
    TITLE "10:cjc040_3792"
    INDEX 01 01:21:35
  TRACK 70 AUDIO
    TITLE "0:"
    INDEX 01 01:22:41
  TRACK 71 AUDIO
    TITLE "11:cjc040_3793"
    INDEX 01 01:23:22
  TRACK 72 AUDIO
    TITLE "0:"
    INDEX 01 01:24:43
